<svg xmlns="http://www.w3.org/2000/svg" viewBox="0 0 1440 960" preserveAspectRatio="xMidYMid slice" aria-hidden="true">
  <defs>
    <linearGradient id="ftw" x1="0" y1="0" x2="0" y2="1">
      <stop offset="0" stop-color="#1b0f33"/>
      <stop offset="0.55" stop-color="#2a1452"/>
      <stop offset="1" stop-color="#0f1d3a"/>
    </linearGradient>
    <radialGradient id="fmoon" cx="50%" cy="50%" r="50%">
      <stop offset="0" stop-color="#a7f3d0" stop-opacity="0.9"/>
      <stop offset="1" stop-color="#a7f3d0" stop-opacity="0"/>
    </radialGradient>
    <radialGradient id="fglow" cx="50%" cy="50%" r="50%">
      <stop offset="0" stop-color="#f0abfc" stop-opacity="0.7"/>
      <stop offset="1" stop-color="#f0abfc" stop-opacity="0"/>
    </radialGradient>
  </defs>
  <rect width="1440" height="960" fill="url(#ftw)"/>
  <circle cx="300" cy="240" r="180" fill="url(#fmoon)"/>
  <circle cx="300" cy="240" r="70" fill="#d1fae5" opacity="0.85"/>
  <circle cx="1080" cy="520" r="160" fill="url(#fglow)"/>
  <circle cx="640" cy="680" r="120" fill="url(#fglow)"/>
  <g fill="#ffffff">
    <circle cx="520" cy="120" r="1.6" opacity="0.9"/><circle cx="760" cy="80" r="1.2" opacity="0.7"/>
    <circle cx="980" cy="160" r="1.4" opacity="0.8"/><circle cx="1200" cy="110" r="1" opacity="0.6"/>
    <circle cx="160" cy="460" r="1.2" opacity="0.7"/><circle cx="1320" cy="300" r="1.5" opacity="0.85"/>
    <circle cx="880" cy="300" r="1" opacity="0.6"/><circle cx="420" cy="360" r="1.3" opacity="0.75"/>
  </g>
  <g fill="#160a2b" opacity="0.92">
    <path d="M0 760 L 120 560 L 180 760 Z"/>
    <path d="M150 780 L 300 500 L 360 540 L 460 780 Z"/>
    <path d="M620 800 L 700 600 L 740 600 L 820 800 Z"/>
    <rect x="700" y="600" width="40" height="200"/>
    <path d="M980 800 L 1120 540 L 1180 580 L 1300 800 Z"/>
    <path d="M1240 780 L 1360 600 L 1440 780 Z"/>
    <rect x="0" y="760" width="1440" height="200"/>
  </g>
</svg>
