<svg xmlns="http://www.w3.org/2000/svg" viewBox="0 0 1440 960" preserveAspectRatio="xMidYMid slice" aria-hidden="true">
  <defs>
    <linearGradient id="nsky" x1="0" y1="0" x2="0" y2="1">
      <stop offset="0" stop-color="#dff1d6"/>
      <stop offset="0.55" stop-color="#eef7e3"/>
      <stop offset="1" stop-color="#f6fbef"/>
    </linearGradient>
  </defs>
  <rect width="1440" height="960" fill="url(#nsky)"/>
  <circle cx="1180" cy="190" r="80" fill="#fde68a" opacity="0.7"/>
  <path d="M0 620 Q 360 520 720 600 T 1440 580 V960 H0 Z" fill="#bfe0a0" opacity="0.8"/>
  <path d="M0 720 Q 400 640 800 710 T 1440 690 V960 H0 Z" fill="#8ec96f" opacity="0.85"/>
  <path d="M0 820 Q 380 760 760 820 T 1440 800 V960 H0 Z" fill="#5fa843" opacity="0.9"/>
  <g fill="#4d7c0f" opacity="0.55">
    <path d="M210 720 l34 -120 l34 120 Z"/><rect x="237" y="715" width="14" height="40"/>
    <path d="M330 740 l28 -96 l28 96 Z"/><rect x="351" y="736" width="12" height="34"/>
    <path d="M1130 760 l40 -140 l40 140 Z"/><rect x="1162" y="754" width="16" height="46"/>
    <path d="M1020 780 l30 -104 l30 104 Z"/><rect x="1043" y="775" width="12" height="36"/>
  </g>
</svg>
