<svg xmlns="http://www.w3.org/2000/svg" viewBox="0 0 1440 960" preserveAspectRatio="xMidYMid slice" aria-hidden="true">
  <defs>
    <linearGradient id="osea" x1="0" y1="0" x2="0" y2="1">
      <stop offset="0" stop-color="#0e4f6e"/>
      <stop offset="0.5" stop-color="#0a3a5c"/>
      <stop offset="1" stop-color="#062539"/>
    </linearGradient>
    <linearGradient id="oray" x1="0" y1="0" x2="0.2" y2="1">
      <stop offset="0" stop-color="#7dd3fc" stop-opacity="0.35"/>
      <stop offset="1" stop-color="#7dd3fc" stop-opacity="0"/>
    </linearGradient>
  </defs>
  <rect width="1440" height="960" fill="url(#osea)"/>
  <polygon points="200,0 360,0 200,960 80,960" fill="url(#oray)"/>
  <polygon points="620,0 760,0 700,960 540,960" fill="url(#oray)"/>
  <polygon points="1060,0 1180,0 1240,960 1080,960" fill="url(#oray)"/>
  <g fill="none" stroke="#5ec5e8" stroke-opacity="0.18" stroke-width="3">
    <path d="M0 300 Q 360 250 720 300 T 1440 300"/>
    <path d="M0 430 Q 360 380 720 430 T 1440 430"/>
    <path d="M0 560 Q 360 510 720 560 T 1440 560"/>
  </g>
  <g fill="#bfeeff" opacity="0.5">
    <circle cx="240" cy="700" r="6"/><circle cx="270" cy="640" r="4"/><circle cx="300" cy="760" r="3"/>
    <circle cx="980" cy="720" r="7"/><circle cx="1010" cy="650" r="4"/><circle cx="950" cy="600" r="3"/>
    <circle cx="640" cy="800" r="5"/><circle cx="670" cy="730" r="3"/>
  </g>
  <path d="M0 880 Q 240 820 480 880 T 960 880 T 1440 880 V960 H0 Z" fill="#04202f" opacity="0.8"/>
</svg>
