<svg xmlns="http://www.w3.org/2000/svg" viewBox="0 0 1440 960" preserveAspectRatio="xMidYMid slice" aria-hidden="true">
  <defs>
    <linearGradient id="sky" x1="0" y1="0" x2="0" y2="1">
      <stop offset="0" stop-color="#0a0e22"/>
      <stop offset="1" stop-color="#10081f"/>
    </linearGradient>
    <radialGradient id="neb1" cx="25%" cy="30%" r="40%">
      <stop offset="0" stop-color="#7c3aed" stop-opacity="0.55"/>
      <stop offset="1" stop-color="#7c3aed" stop-opacity="0"/>
    </radialGradient>
    <radialGradient id="neb2" cx="80%" cy="70%" r="45%">
      <stop offset="0" stop-color="#0ea5e9" stop-opacity="0.45"/>
      <stop offset="1" stop-color="#0ea5e9" stop-opacity="0"/>
    </radialGradient>
    <radialGradient id="neb3" cx="65%" cy="20%" r="30%">
      <stop offset="0" stop-color="#ec4899" stop-opacity="0.35"/>
      <stop offset="1" stop-color="#ec4899" stop-opacity="0"/>
    </radialGradient>
  </defs>
  <rect width="1440" height="960" fill="url(#sky)"/>
  <rect width="1440" height="960" fill="url(#neb1)"/>
  <rect width="1440" height="960" fill="url(#neb2)"/>
  <rect width="1440" height="960" fill="url(#neb3)"/>
  <g fill="#ffffff">
    <circle cx="120" cy="90" r="1.6" opacity="0.9"/><circle cx="300" cy="160" r="1" opacity="0.6"/>
    <circle cx="450" cy="70" r="1.3" opacity="0.8"/><circle cx="620" cy="140" r="1" opacity="0.5"/>
    <circle cx="780" cy="60" r="1.8" opacity="0.95"/><circle cx="920" cy="180" r="1.1" opacity="0.7"/>
    <circle cx="1080" cy="90" r="1" opacity="0.55"/><circle cx="1240" cy="150" r="1.5" opacity="0.85"/>
    <circle cx="1360" cy="80" r="1" opacity="0.6"/><circle cx="200" cy="320" r="1.2" opacity="0.7"/>
    <circle cx="380" cy="400" r="1" opacity="0.5"/><circle cx="560" cy="300" r="1.6" opacity="0.85"/>
    <circle cx="740" cy="420" r="1" opacity="0.55"/><circle cx="900" cy="340" r="1.3" opacity="0.75"/>
    <circle cx="1100" cy="430" r="1" opacity="0.5"/><circle cx="1300" cy="360" r="1.7" opacity="0.9"/>
    <circle cx="90" cy="560" r="1.2" opacity="0.7"/><circle cx="280" cy="640" r="1" opacity="0.5"/>
    <circle cx="500" cy="600" r="1.5" opacity="0.85"/><circle cx="700" cy="700" r="1" opacity="0.55"/>
    <circle cx="880" cy="620" r="1.2" opacity="0.7"/><circle cx="1080" cy="720" r="1" opacity="0.5"/>
    <circle cx="1280" cy="640" r="1.6" opacity="0.88"/><circle cx="160" cy="820" r="1.1" opacity="0.65"/>
    <circle cx="420" cy="860" r="1" opacity="0.5"/><circle cx="640" cy="800" r="1.4" opacity="0.8"/>
    <circle cx="860" cy="880" r="1" opacity="0.55"/><circle cx="1060" cy="840" r="1.2" opacity="0.7"/>
    <circle cx="1320" cy="880" r="1" opacity="0.5"/><circle cx="1180" cy="260" r="1.3" opacity="0.75"/>
  </g>
  <circle cx="1150" cy="230" r="46" fill="#c4b5fd" opacity="0.9"/>
  <circle cx="1133" cy="218" r="46" fill="#0a0e22" opacity="0.85"/>
</svg>
